<svg width="32" height="32" viewBox="0 0 32 32" fill="none" xmlns="http://www.w3.org/2000/svg">
<g clip-path="url(#clip0_55_197)">
<mask id="mask0_55_197" style="mask-type:luminance" maskUnits="userSpaceOnUse" x="0" y="0" width="32" height="32">
<path d="M32 0H0V32H32V0Z" fill="white"/>
</mask>
<g mask="url(#mask0_55_197)">
<path fill-rule="evenodd" clip-rule="evenodd" d="M29.0005 23.2405V16.4644C22.0772 16.4644 16.4648 22.0768 16.4648 29.0001H23.2408C23.2408 25.8191 25.8195 23.2405 29.0005 23.2405Z" fill="#1D1D1B"/>
<path fill-rule="evenodd" clip-rule="evenodd" d="M8.75965 29.0001H15.5357C15.5357 22.0768 9.92328 16.4644 3 16.4644V23.2405C6.18097 23.2405 8.75965 25.8191 8.75965 29.0001Z" fill="#1D1D1B"/>
<path fill-rule="evenodd" clip-rule="evenodd" d="M23.2408 3H16.4648C16.4648 9.92329 22.0772 15.5357 29.0005 15.5357V8.75965C25.8195 8.75965 23.2408 6.18097 23.2408 3Z" fill="#1D1D1B"/>
<path fill-rule="evenodd" clip-rule="evenodd" d="M3 8.75965V15.5357C9.92328 15.5357 15.5357 9.92329 15.5357 3H8.75965C8.75965 6.18097 6.18097 8.75965 3 8.75965Z" fill="#1D1D1B"/>
</g>
</g>
<defs>
<clipPath id="clip0_55_197">
<rect width="32" height="32" fill="white"/>
</clipPath>
</defs>
</svg>
